<svg
	width="31"
	height="30"
	viewBox="0 0 31 30"
	fill="none"
	xmlns="http://www.w3.org/2000/svg"
>
<path
		d="M29.4667 0H1.86675C1.203 0 0.666748 0.53625 0.666748 1.2V28.8C0.666748 29.4638 1.203 30 1.86675 30H29.4667C30.1305 30 30.6667 29.4638 30.6667 28.8V1.2C30.6667 0.53625 30.1305 0 29.4667 0ZM9.5655 25.5638H5.11425V11.2463H9.5655V25.5638ZM7.34175 9.28875C6.83147 9.28875 6.33266 9.13744 5.90838 8.85394C5.4841 8.57045 5.15341 8.16751 4.95814 7.69607C4.76286 7.22464 4.71177 6.70589 4.81132 6.20542C4.91087 5.70495 5.15659 5.24523 5.51741 4.88441C5.87823 4.5236 6.33794 4.27787 6.83842 4.17832C7.33889 4.07877 7.85764 4.12987 8.32907 4.32514C8.8005 4.52041 9.20345 4.8511 9.48694 5.27538C9.77043 5.69966 9.92175 6.19847 9.92175 6.70875C9.918 8.13375 8.763 9.28875 7.34175 9.28875ZM26.2305 25.5638H21.783V18.6C21.783 16.9388 21.753 14.805 19.4692 14.805C17.1555 14.805 16.7992 16.6125 16.7992 18.48V25.5638H12.3555V11.2463H16.623V13.2038H16.683C17.2755 12.0788 18.7267 10.89 20.8942 10.89C25.4017 10.89 26.2305 13.8562 26.2305 17.7113V25.5638V25.5638Z"
		fill="#F0F0F0"
	/>
</svg>
